<?xml version="1.0" encoding="UTF-8" standalone="no"?>
<svg width="96px" height="24px" viewBox="0 0 96 24" version="1.1" xmlns="http://www.w3.org/2000/svg" xmlns:xlink="http://www.w3.org/1999/xlink">
    <!-- Generator: Sketch 48.2 (47327) - http://www.bohemiancoding.com/sketch -->
    <title>endi_completo-color</title>
    <desc>Created with Sketch.</desc>
    <defs></defs>
    <g id="General/Header-black" stroke="none" stroke-width="1" fill="none" fill-rule="evenodd" transform="translate(-30.000000, -17.000000)">
        <g id="Header#1-black" fill="#FFFFFF">
            <g id="endi_completo-color" transform="translate(30.000000, 17.000000)">
                <path d="M61.3394539,7.6851244 L76.8492515,14.2857143 L62.5930521,0.219361475 C62.1710619,-0.223413453 61.4521319,0.04344794 61.3383934,0.668025112 L61.3394539,7.6851244 Z" id="Shape"></path>
                <path d="M80.181866,15.5824097 C80.181866,15.5824097 89.7533367,7.44188557 89.9717819,7.26001212 C90.0814102,7.16836495 90.3679223,6.97698932 90.1858997,6.64450192 C90.00559,6.31245855 89.6164816,6.45552404 89.4772825,6.48101119 C89.1989745,6.53136385 73.3911317,9.28521915 73.3911317,9.28521915 L73.3240565,9.29951682 L80.0251769,15.7142857 L80.181866,15.5824097" id="Shape"></path>
                <path d="M81.0794856,16.238863 L87.6680725,18.5714286 C87.6680725,18.5714286 95.1720636,15.3630937 95.4533535,15.2353362 C95.7511091,15.100201 95.9436669,15.0091512 95.8692966,14.6630362 C95.8108432,14.3881774 95.5473912,14.3796302 95.3461431,14.3687439 C95.1447121,14.3582174 84.262498,13.5714286 84.262498,13.5714286 L81.0794856,16.238863" id="Shape"></path>
                <polygon id="Shape" fill-rule="nonzero" points="76.4222992 18.5714286 78.2593295 23.5714286 61.3383934 23.5714286"></polygon>
                <path d="M95.7146835,23.0911584 L62.1211074,10.0179091 C61.722163,9.92169277 61.3383934,10.2253108 61.3383934,10.6374991 L61.3383934,21.7845278 L76.296338,16.5228374 C76.7306602,16.3703521 77.2059275,16.6008384 77.3574061,17.0374641 L79.402501,22.9331724 L79.6228498,23.5688135 L95.6422216,23.5714286 C95.9206655,23.5689939 95.979928,23.1761029 95.7146835,23.0911584" id="Shape" fill-rule="nonzero"></path>
                <g id="Group" transform="translate(0.000000, 0.200001)" fill-rule="nonzero">
                    <path d="M13.9036561,21.9914476 C12.6363526,23.0657601 10.8573741,23.6800703 8.26411055,23.6800703 C5.06688222,23.6800703 2.47254238,22.6976122 1.14595451,20.3643656 C0.421986066,19.0435255 0,17.2015992 0,14.8989403 C0,12.9340241 0.421986066,10.9686514 1.32694662,9.49505561 C2.56393532,7.49955177 4.97620678,6.14848929 8.26420024,6.14848929 C11.7025122,6.14848929 13.9337916,7.5911322 15.1104197,9.52591722 C16.1353839,11.183587 16.4973681,13.670959 16.2863303,16.4958912 L4.4932323,16.4958912 C4.4932323,17.2626833 4.73494376,18.122608 5.18724466,18.7678712 C5.69990616,19.4738531 6.81653242,19.9343119 8.26420024,19.9343119 C9.34979415,19.9343119 10.193856,19.7193763 10.797462,19.3199104 C11.4304859,18.889948 11.7317508,18.3073211 11.7624244,17.9080377 L16.1656987,17.9080377 C15.9850654,19.2285125 15.3213679,20.8559598 13.9036561,21.9914476 M11.189492,11.1225029 C10.6767408,10.4778789 9.71115055,9.95551436 8.26420024,9.95551436 C6.87653426,9.95551436 5.85094219,10.4165209 5.24796402,11.1225029 C4.73494376,11.7056776 4.4932323,12.6881357 4.46327622,13.3024459 L11.7924701,13.3024459 C11.7923804,12.6262299 11.6417929,11.7056776 11.189492,11.1225029" id="Shape"></path>
                    <path d="M28.5619543,23.404142 C28.3808725,23.404142 28.3808725,23.0348071 28.3808725,13.0868712 C28.3808725,11.3372558 27.5662286,10.3234796 25.7868914,10.3234796 C24.098678,10.3234796 22.6203366,11.2755326 22.6203366,13.2106829 L22.6203366,23.4042333 L18.0358011,23.4042333 L18.0358011,6.51709369 L22.469749,6.51709369 L22.469749,8.72689392 C23.2536296,7.00814011 25.364995,6.17843783 27.5962743,6.17843783 C31.3671526,6.17843783 32.995095,8.14426706 32.995095,11.8595291 C32.995095,23.1585275 33.0254098,23.404142 33.116175,23.4042333 L28.5619543,23.404142 Z" id="Shape"></path>
                    <path d="M46.4196333,8.29747939 L46.4196333,0 L51.0041688,0 L51.0041688,21.1622932 C51.0041688,22.0833933 51.1241725,23.404142 51.1241725,23.404142 L47.0529263,23.404142 L46.539906,21.316236 C45.9369278,22.5442173 44.096961,23.6497565 41.4737413,23.6497565 C39.0008402,23.6497565 37.2811461,22.7898318 36.1652373,21.1928809 C35.1405421,19.7503293 34.5669819,17.7849566 34.5669819,15.1748686 C34.5669819,12.4426125 35.1099582,10.5083753 36.1652373,8.9424686 C37.1905603,7.34588291 39.301836,6.33247192 41.4434265,6.33247192 C43.5243873,6.33238061 45.4544018,6.91592054 46.4196333,8.29747939 M39.9055317,11.7363566 C39.3925114,12.6265038 39.1512484,13.7629047 39.1512484,15.0832881 C39.1512484,16.2193238 39.3019257,17.324863 39.7239117,18.2454153 C40.236932,19.197377 41.262524,19.8728626 42.8905562,19.8728626 C44.218579,19.8728626 45.1231808,19.3508633 45.726159,18.522348 C46.2691354,17.7849566 46.5400854,16.7106441 46.5400854,15.0832881 C46.5400854,13.4562061 46.2691354,12.2584472 45.6654397,11.4909247 C45.0623718,10.7229456 44.15777,10.3544325 42.9510961,10.3544325 C41.5037871,10.3543412 40.4784641,10.7839384 39.9055317,11.7363566" id="Shape"></path>
                    <path d="M53.6590486,23.404142 C53.5087301,23.3422362 53.4783256,23.096713 53.4783256,21.8075563 L53.4783256,6.57352111 L58.1232217,6.57352111 L58.1232217,21.7458331 C58.1232217,23.004676 58.1232217,23.3112833 58.2435842,23.404142 L53.6590486,23.404142 Z" id="Shape"></path>
                    <rect id="Rectangle-path" x="53.4650516" y="0" width="4.57224818" height="3.97950307"></rect>
                </g>
            </g>
        </g>
    </g>
</svg>