<?xml version="1.0" encoding="UTF-8" standalone="no"?>
<svg width="128px" height="20px" viewBox="0 0 128 20" version="1.1" xmlns="http://www.w3.org/2000/svg" xmlns:xlink="http://www.w3.org/1999/xlink">
    <!-- Generator: Sketch 49 (51002) - http://www.bohemiancoding.com/sketch -->
    <title>PHcom</title>
    <desc>Created with Sketch.</desc>
    <defs>
        <polygon id="path-1" points="10.2298648 0 20.251331 0 20.251331 20 10.2298648 20 0.208398577 20 0.208398577 0 10.2298648 0"></polygon>
        <polygon id="path-3" points="0 20 127.75311 20 127.75311 0 0 0"></polygon>
    </defs>
    <g id="Symbols" stroke="none" stroke-width="1" fill="none" fill-rule="evenodd">
        <g id="Footer-Desktop" transform="translate(-448.000000, -60.000000)">
            <g id="footer-big">
                <g id="marcas" transform="translate(338.000000, 59.000000)">
                    <g id="PHcom" transform="translate(110.000000, 1.000000)">
                        <g id="Group-3" transform="translate(107.501779, 0.000000)">
                            <mask id="mask-2" fill="white">
                                <use xlink:href="#path-1"></use>
                            </mask>
                            <g id="Clip-2"></g>
                            <path d="M20.2515587,10 C20.2515587,15.5227273 15.7651815,20 10.2302064,20 C4.69614235,20 0.208398577,15.5227273 0.208398577,10 C0.208398577,4.47727273 4.69614235,0 10.2302064,0 C15.7651815,0 20.2515587,4.47727273 20.2515587,10" id="Fill-1" fill="#CCCCCC" mask="url(#mask-2)"></path>
                        </g>
                        <path d="M113.839647,10.9081818 L113.839647,12.0745455 C113.839647,13.4809091 113.153184,14.2845455 111.831277,14.2845455 C110.508458,14.2845455 109.823362,13.4809091 109.823362,12.0745455 L109.823362,7.50681818 C109.823362,6.10045455 110.508458,5.29727273 111.831277,5.29727273 C113.153184,5.29727273 113.839647,6.10045455 113.839647,7.50681818 L113.839647,8.35954545 L112.566024,8.35954545 L112.566024,7.41863636 C112.566024,6.79090909 112.296359,6.55272727 111.867263,6.55272727 C111.438622,6.55272727 111.170323,6.79090909 111.170323,7.41863636 L111.170323,12.1636364 C111.170323,12.7904545 111.438622,13.0168182 111.867263,13.0168182 C112.296359,13.0168182 112.566024,12.7904545 112.566024,12.1636364 L112.566024,10.9081818 L113.839647,10.9081818 Z" id="Fill-4" fill="#4A4A4A"></path>
                        <path d="M115.897031,12.1630909 C115.897031,12.7903636 116.167152,13.029 116.594426,13.029 C117.024433,13.029 117.292732,12.7903636 117.292732,12.1630909 L117.292732,7.41854545 C117.292732,6.79127273 117.024433,6.55309091 116.594426,6.55309091 C116.167152,6.55309091 115.897031,6.79127273 115.897031,7.41854545 L115.897031,12.1630909 Z M114.55007,7.50672727 C114.55007,6.10081818 115.272518,5.29763636 116.594426,5.29763636 C117.918155,5.29763636 118.639693,6.10081818 118.639693,7.50672727 L118.639693,12.0758182 C118.639693,13.4808182 117.918155,14.2844545 116.594426,14.2844545 C115.272518,14.2844545 114.55007,13.4808182 114.55007,12.0758182 L114.55007,7.50672727 Z" id="Fill-6" fill="#4A4A4A"></path>
                        <polygon id="Fill-8" fill="#4A4A4A" points="122.364083 11.6353182 123.282403 5.39759091 125.156396 5.39759091 125.156396 14.1835 123.881862 14.1835 123.881862 7.88304545 122.951698 14.1835 121.67762 14.1835 120.674118 7.97077273 120.674118 14.1835 119.497976 14.1835 119.497976 5.39759091 121.371969 5.39759091"></polygon>
                        <path d="M2.76088256,3.61704545 L2.76088256,9.7125 L4.06548043,9.7125 C4.94325979,9.7125 5.42064057,9.30113636 5.42064057,8.01522727 L5.42064057,5.31477273 C5.42064057,4.02886364 4.94325979,3.61704545 4.06548043,3.61704545 L2.76088256,3.61704545 Z M8.18106762,5.49477273 L8.18106762,7.83477273 C8.18106762,10.7156818 6.82636299,12.2847727 4.06548043,12.2847727 L2.76088256,12.2847727 L2.76088256,19.0493182 L0,19.0493182 L0,1.04477273 L4.06548043,1.04477273 C6.82636299,1.04477273 8.18106762,2.61386364 8.18106762,5.49477273 Z" id="Fill-10" fill="#CCCCCC"></path>
                        <path d="M12.223089,3.61704545 L12.223089,9.14659091 L13.3012954,9.14659091 C14.3307616,9.14659091 14.9580071,8.68340909 14.9580071,7.24340909 L14.9580071,5.46886364 C14.9580071,4.18295455 14.5311886,3.61704545 13.5527402,3.61704545 L12.223089,3.61704545 Z M15.2340498,19.0493182 C15.083274,18.5861364 14.9830605,18.3034091 14.9830605,16.8365909 L14.9830605,14.0079545 C14.9830605,12.3361364 14.4309751,11.7188636 13.176484,11.7188636 L12.223089,11.7188636 L12.223089,19.0493182 L9.46175089,19.0493182 L9.46175089,1.04477273 L13.6283559,1.04477273 C16.4889964,1.04477273 17.7184342,2.40795455 17.7184342,5.18568182 L17.7184342,6.60068182 C17.7184342,8.45204545 17.1412954,9.66113636 15.9118577,10.2525 C17.2920712,10.8443182 17.7434875,12.2075 17.7434875,14.0847727 L17.7434875,16.8629545 C17.7434875,17.7370455 17.7689964,18.3806818 18.0450391,19.0493182 L15.2340498,19.0493182 Z" id="Fill-12" fill="#CCCCCC"></path>
                        <mask id="mask-4" fill="white">
                            <use xlink:href="#path-3"></use>
                        </mask>
                        <g id="Clip-15"></g>
                        <polygon id="Fill-14" fill="#CCCCCC" mask="url(#mask-4)" points="19.5507473 19.0490909 22.3120854 19.0490909 22.3120854 1.045 19.5507473 1.045"></polygon>
                        <polygon id="Fill-16" fill="#CCCCCC" mask="url(#mask-4)" points="30.1675046 13.8281364 32.0501523 1.0445 35.8896968 1.0445 35.8896968 19.0490455 33.278679 19.0490455 33.278679 6.13768182 31.371889 19.0490455 28.7617822 19.0490455 26.7037609 6.31768182 26.7037609 19.0490455 24.2945367 19.0490455 24.2945367 1.0445 28.1349922 1.0445"></polygon>
                        <polygon id="Fill-17" fill="#CCCCCC" mask="url(#mask-4)" points="40.6585851 8.63236364 44.4475673 8.63236364 44.4475673 11.2046364 40.6585851 11.2046364 40.6585851 16.4769091 45.4264712 16.4769091 45.4264712 19.0491818 37.8977025 19.0491818 37.8977025 1.04509091 45.4264712 1.04509091 45.4264712 3.61645455 40.6585851 3.61645455"></polygon>
                        <path d="M49.8943544,3.61704545 L49.8943544,9.14659091 L50.9734719,9.14659091 C52.0029381,9.14659091 52.6301836,8.68340909 52.6301836,7.24340909 L52.6301836,5.46886364 C52.6301836,4.18295455 52.2029096,3.61704545 51.2240057,3.61704545 L49.8943544,3.61704545 Z M52.9062263,19.0493182 C52.7554505,18.5861364 52.655237,18.3034091 52.655237,16.8365909 L52.655237,14.0079545 C52.655237,12.3361364 52.1031516,11.7188636 50.848205,11.7188636 L49.8943544,11.7188636 L49.8943544,19.0493182 L47.1334719,19.0493182 L47.1334719,1.04477273 L51.3000769,1.04477273 C54.161173,1.04477273 55.3901552,2.40795455 55.3901552,5.18568182 L55.3901552,6.60068182 C55.3901552,8.45204545 54.8134719,9.66113636 53.5840342,10.2525 C54.9637922,10.8443182 55.4156641,12.2075 55.4156641,14.0847727 L55.4156641,16.8629545 C55.4156641,17.7370455 55.441173,18.3806818 55.7172157,19.0493182 L52.9062263,19.0493182 Z" id="Fill-18" fill="#CCCCCC" mask="url(#mask-4)"></path>
                        <path d="M59.8583117,13.3389545 L62.5189808,13.3389545 L61.1884185,4.23440909 L59.8583117,13.3389545 Z M66.1571872,19.0494091 L63.3717068,19.0494091 L62.8947815,15.7830455 L59.5071089,15.7830455 L59.0306391,19.0494091 L56.495237,19.0494091 L59.3062263,1.04531818 L63.3466534,1.04531818 L66.1571872,19.0494091 Z" id="Fill-19" fill="#CCCCCC" mask="url(#mask-4)"></path>
                        <polygon id="Fill-20" fill="#FFFFFF" mask="url(#mask-4)" points="70.1986164 19.0491818 67.4377338 19.0491818 67.4377338 1.04509091 70.1986164 1.04509091 70.1986164 8.76054545 73.3366662 8.76054545 73.3366662 1.04509091 76.1472 1.04509091 76.1472 19.0491818 73.3366662 19.0491818 73.3366662 11.3323636 70.1986164 11.3323636"></polygon>
                        <path d="M80.6897423,14.9081364 C80.6897423,16.1940455 81.2418278,16.6826818 82.1205181,16.6826818 C82.9982975,16.6826818 83.5499274,16.1940455 83.5499274,14.9081364 L83.5499274,5.18586364 C83.5499274,3.8995 82.9982975,3.41131818 82.1205181,3.41131818 C81.2418278,3.41131818 80.6897423,3.8995 80.6897423,5.18586364 L80.6897423,14.9081364 Z M77.9288598,5.36631818 C77.9288598,2.48495455 79.4092868,0.839045455 82.1205181,0.839045455 C84.8308384,0.839045455 86.3112655,2.48495455 86.3112655,5.36631818 L86.3112655,14.7281364 C86.3112655,17.6081364 84.8308384,19.2549545 82.1205181,19.2549545 C79.4092868,19.2549545 77.9288598,17.6081364 77.9288598,14.7281364 L77.9288598,5.36631818 Z" id="Fill-21" fill="#FFFFFF" mask="url(#mask-4)"></path>
                        <path d="M90.8547644,3.61704545 L90.8547644,9.14659091 L91.9338819,9.14659091 C92.9628925,9.14659091 93.5901381,8.68340909 93.5901381,7.24340909 L93.5901381,5.46886364 C93.5901381,4.18295455 93.1628641,3.61704545 92.1844157,3.61704545 L90.8547644,3.61704545 Z M93.8657253,19.0493182 C93.714494,18.5861364 93.6161025,18.3034091 93.6161025,16.8365909 L93.6161025,14.0079545 C93.6161025,12.3361364 93.0635616,11.7188636 91.8081594,11.7188636 L90.8547644,11.7188636 L90.8547644,19.0493182 L88.0934263,19.0493182 L88.0934263,1.04477273 L92.2600313,1.04477273 C95.1211274,1.04477273 96.3505651,2.40795455 96.3505651,5.18568182 L96.3505651,6.60068182 C96.3505651,8.45204545 95.7738819,9.66113636 94.5439886,10.2525 C95.9237466,10.8443182 96.376074,12.2075 96.376074,14.0847727 L96.376074,16.8629545 C96.376074,17.7370455 96.4006719,18.3806818 96.6762591,19.0493182 L93.8657253,19.0493182 Z" id="Fill-22" fill="#FFFFFF" mask="url(#mask-4)"></path>
                        <path d="M100.818722,13.3389545 L103.478935,13.3389545 L102.148828,4.23440909 L100.818722,13.3389545 Z M107.118053,19.0494091 L104.332117,19.0494091 L103.855191,15.7830455 L100.467519,15.7830455 L99.9905936,19.0494091 L97.455647,19.0494091 L100.266181,1.04531818 L104.307063,1.04531818 L107.118053,19.0494091 Z" id="Fill-23" fill="#FFFFFF" mask="url(#mask-4)"></path>
                    </g>
                </g>
            </g>
        </g>
    </g>
</svg>