<?xml version="1.0" encoding="UTF-8" standalone="no"?>
<svg width="80px" height="21px" viewBox="0 0 80 21" version="1.1" xmlns="http://www.w3.org/2000/svg" xmlns:xlink="http://www.w3.org/1999/xlink">
    <!-- Generator: Sketch 49 (51002) - http://www.bohemiancoding.com/sketch -->
    <title>endi_completo-color</title>
    <desc>Created with Sketch.</desc>
    <defs></defs>
    <g id="Symbols" stroke="none" stroke-width="1" fill="none" fill-rule="evenodd">
        <g id="Footer-Desktop" transform="translate(-338.000000, -59.000000)" fill="#FFFFFF">
            <g id="footer-big">
                <g id="marcas" transform="translate(338.000000, 59.000000)">
                    <g id="endi_completo-color">
                        <path d="M51.1773554,7.32892598 L64.1176471,12.7647059 L52.2232701,1.18065063 C51.871191,0.816012451 51.2713661,1.03578066 51.1764706,1.55013833 L51.1773554,7.32892598 Z" id="Shape"></path>
                        <path d="M66.8981478,13.2443374 C66.8981478,13.2443374 74.8839143,6.54037635 75.0661697,6.39059821 C75.1576359,6.31512408 75.3966816,6.15752062 75.2448146,5.88370747 C75.0943768,5.61025998 74.769732,5.72807862 74.653594,5.74906804 C74.4213932,5.79053494 61.2324335,8.05841577 61.2324335,8.05841577 L61.1764706,8.07019032 L66.7674173,13.3529412 L66.8981478,13.2443374" id="Shape"></path>
                        <path d="M67.6470588,13.784946 L73.1441155,15.7058824 C73.1441155,15.7058824 79.4049215,13.0637243 79.6396101,12.9585121 C79.8880366,12.8472244 80.0486934,12.7722422 79.986644,12.4872062 C79.9378746,12.260852 79.7180686,12.2538131 79.5501613,12.2448479 C79.3821013,12.236179 70.302742,11.5882353 70.302742,11.5882353 L67.6470588,13.784946" id="Shape"></path>
                        <polygon id="Shape" fill-rule="nonzero" points="63.7614278 15.7058824 65.2941176 19.8235294 51.1764706 19.8235294"></polygon>
                        <path d="M79.8576456,19.4280128 L51.8295124,8.66180751 C51.4966611,8.58257052 51.1764706,8.83260889 51.1764706,9.17205808 L51.1764706,18.3519641 L63.6563346,14.0188073 C64.0187028,13.8932311 64.4152326,14.0830434 64.5416157,14.4426175 L66.2479001,19.2979067 L66.4317437,19.8213758 L79.7971885,19.8235294 C80.0295026,19.8215244 80.0789471,19.4979671 79.8576456,19.4280128" id="Shape" fill-rule="nonzero"></path>
                        <g id="Group" transform="translate(0.000000, 0.599998)" fill-rule="nonzero">
                            <path d="M11.5997255,18.1106039 C10.5424228,18.9953318 9.05823323,19.5012343 6.8946911,19.5012343 C4.2272653,19.5012343 2.06282525,18.6921512 0.956062037,16.770654 C0.352060099,15.6829034 0,14.1660229 0,12.2697155 C0,10.6515493 0.352060099,9.03300706 1.10706252,7.81945756 C2.13907376,6.17610146 4.1516154,5.06346177 6.89476593,5.06346177 C9.76332618,5.06346177 11.6248673,6.25152064 12.6065201,7.844873 C13.4616408,9.21001279 13.7636418,11.2584368 13.5875743,13.5848516 L3.74867308,13.5848516 C3.74867308,14.2163274 3.95033131,14.9245007 4.32768287,15.4558939 C4.75539286,16.0372908 5.68698653,16.4164921 6.89476593,16.4164921 C7.80046953,16.4164921 8.50466455,16.2394864 9.00824893,15.9105144 C9.53637649,15.5564278 9.78771971,15.0766174 9.81331048,14.7477958 L13.4869323,14.7477958 C13.3362311,15.8352456 12.7825128,17.1754963 11.5997255,18.1106039 M9.33531687,9.15970827 C8.90753205,8.62884147 8.10194671,8.19865888 6.89476593,8.19865888 C5.73704566,8.19865888 4.88140119,8.57831137 4.37834061,9.15970827 C3.95033131,9.63996979 3.74867308,10.4490529 3.72368093,10.9549555 L9.83837746,10.9549555 C9.83830263,10.3980717 9.71266843,9.63996979 9.33531687,9.15970827" id="Shape"></path>
                            <path d="M23.8290438,19.2739993 C23.6779684,19.2739993 23.6779684,18.9698412 23.6779684,10.7774234 C23.6779684,9.33656362 22.9983166,8.50168909 21.5138277,8.50168909 C20.1053628,8.50168909 18.8719927,9.28573275 18.8719927,10.8793859 L18.8719927,19.2740745 L15.0471459,19.2740745 L15.0471459,5.36701833 L18.7463585,5.36701833 L18.7463585,7.18685382 C19.4003447,5.77140951 21.1618424,5.08812527 23.0233836,5.08812527 C26.1694016,5.08812527 27.5275829,6.70704346 27.5275829,9.76667101 C27.5275829,19.0717285 27.5528743,19.2739993 27.6285991,19.2740745 L23.8290438,19.2739993 Z" id="Shape"></path>
                            <path d="M38.7275836,6.83321832 L38.7275836,0 L42.5524304,0 L42.5524304,17.4277709 C42.5524304,18.1863239 42.6525487,19.2739993 42.6525487,19.2739993 L39.2559357,19.2739993 L38.8279264,17.5545473 C38.3248658,18.565826 36.789794,19.4762701 34.6012597,19.4762701 C32.5381351,19.4762701 31.1034061,18.7680968 30.172411,17.4529607 C29.3175148,16.264977 28.8389974,14.6464348 28.8389974,12.4969506 C28.8389974,10.2468573 29.2919989,8.65395613 30.172411,7.3643859 C31.027831,6.04955063 32.7892539,5.21497687 34.5759682,5.21497687 C36.3120997,5.21490168 37.9222976,5.69546397 38.7275836,6.83321832 M33.2929131,9.66523484 C32.8649038,10.3982972 32.6636197,11.3341568 32.6636197,12.4215314 C32.6636197,13.3570902 32.7893287,14.2675343 33.1413888,15.0256361 C33.5693981,15.8096046 34.4250426,16.3658868 35.7832987,16.3658868 C36.8912591,16.3658868 37.6459622,15.936005 38.1490228,15.2536983 C38.6020243,14.6464348 38.828076,13.7617069 38.828076,12.4215314 C38.828076,11.0815815 38.6020243,10.0951918 38.0983651,9.46311445 C37.5952297,8.83066109 36.8405265,8.52717972 35.8338068,8.52717972 C34.6263267,8.52710453 33.7709067,8.88089041 33.2929131,9.66523484" id="Shape"></path>
                            <path d="M44.7673785,19.2739993 C44.6419688,19.223018 44.6166025,19.0208224 44.6166025,17.959164 L44.6166025,5.41348797 L48.4918077,5.41348797 L48.4918077,17.9083331 C48.4918077,18.9450273 48.4918077,19.1975274 48.5922253,19.2739993 L44.7673785,19.2739993 Z" id="Shape"></path>
                            <rect id="Rectangle-path" x="44.6055282" y="0" width="3.81459549" height="3.27723782"></rect>
                        </g>
                    </g>
                </g>
            </g>
        </g>
    </g>
</svg>